<?xml version="1.0" standalone="no"?>
<!DOCTYPE svg PUBLIC "-//W3C//DTD SVG 20010904//EN"
 "http://www.w3.org/TR/2001/REC-SVG-20010904/DTD/svg10.dtd">
<svg version="1.0" xmlns="http://www.w3.org/2000/svg"
 width="1024.000000pt" height="1024.000000pt" viewBox="0 0 1024.000000 1024.000000"
 preserveAspectRatio="xMidYMid meet">

<g transform="translate(0.000000,1024.000000) scale(0.100000,-0.100000)"
fill="#000000" stroke="none">
<path d="M5296 8439 c-198 -26 -506 -142 -566 -213 -7 -9 -27 -16 -44 -16 -18
0 -85 -7 -151 -16 -414 -54 -686 -272 -660 -529 l6 -60 -22 35 c-26 41 -39 53
-99 84 -136 71 -374 82 -549 25 -85 -28 -201 -99 -246 -151 -57 -68 -47 -146
34 -252 36 -48 96 -177 137 -295 27 -78 82 -134 170 -177 41 -19 74 -39 74
-44 0 -5 -12 -31 -26 -57 -22 -42 -25 -57 -21 -118 5 -87 30 -137 97 -198 98
-89 215 -125 356 -112 104 10 229 71 304 151 l53 56 56 -26 c31 -14 76 -30
101 -37 45 -11 110 -61 110 -85 0 -17 -11 -20 -129 -35 -117 -15 -113 -19 54
-44 55 -9 103 -19 107 -23 4 -4 -626 -7 -1400 -7 -1331 0 -1410 -1 -1462 -18
-116 -38 -216 -133 -262 -247 -32 -80 -32 -231 1 -313 32 -82 122 -175 203
-213 l63 -29 3540 0 3540 0 55 24 c158 70 245 191 257 356 10 125 -35 235
-133 324 -61 56 -133 93 -212 110 -37 8 -409 11 -1250 11 l-1197 1 77 40 c52
28 96 61 132 100 l54 58 47 -15 c71 -25 239 -15 333 18 145 52 312 179 366
279 34 61 46 164 27 222 -18 54 -64 111 -126 157 -110 81 -212 111 -401 119
-16 1 -23 9 -28 34 -14 75 -36 413 -36 553 0 137 2 152 20 169 32 29 54 99 46
151 -13 101 -69 141 -234 171 -109 20 -332 22 -432 4 -41 -8 -86 -14 -100 -15
-37 -3 -126 -52 -175 -97 -24 -22 -58 -69 -77 -104 -21 -42 -39 -65 -50 -65
-10 0 -18 5 -18 11 0 16 70 140 94 167 33 38 154 105 186 104 17 0 31 6 34 15
8 19 15 16 -69 36 -152 36 -390 47 -559 26z m339 -80 l75 -11 -38 -42 c-20
-22 -59 -78 -85 -123 -26 -46 -49 -83 -51 -83 -3 0 -58 15 -123 34 -147 42
-235 56 -385 59 -65 1 -118 5 -118 8 0 19 159 100 245 125 134 39 342 53 480
33z m753 -181 c2 -73 6 -98 16 -98 10 0 15 -53 20 -252 4 -139 14 -336 22
-438 7 -102 14 -190 14 -196 0 -17 -231 -39 -411 -39 -228 0 -212 -23 -205
285 2 145 11 283 22 361 10 69 15 133 11 142 -3 9 -29 31 -57 48 -28 17 -55
39 -60 49 -42 78 50 177 200 216 81 21 218 30 335 24 l90 -5 3 -97z m177 92
c33 -13 53 -47 55 -95 4 -77 4 -75 -49 -75 -66 0 -110 17 -122 47 -5 13 -9 52
-9 85 l0 61 50 -7 c28 -4 62 -11 75 -16z m-1445 -160 c287 -33 527 -146 591
-277 29 -60 24 -181 -10 -236 -22 -35 -118 -107 -143 -107 -7 0 8 13 33 29 88
55 124 131 98 204 -12 35 -23 46 -64 67 -52 25 -175 41 -175 23 0 -6 21 -18
46 -28 62 -24 124 -86 124 -124 0 -38 -39 -84 -93 -110 -23 -11 -98 -29 -167
-40 -354 -57 -772 -55 -1060 4 -155 31 -223 58 -276 109 -39 38 -44 47 -44 88
0 142 183 299 423 363 51 14 124 29 162 34 97 12 452 13 555 1z m1408 -56 l22
-6 0 -238 c0 -130 5 -308 11 -395 6 -86 7 -161 2 -165 -4 -5 -19 -11 -33 -15
-24 -6 -25 -4 -28 47 -2 29 -7 96 -13 148 -5 52 -12 215 -16 363 -6 258 -6
267 13 267 10 0 29 -3 42 -6z m-2903 -338 c193 -51 255 -186 139 -302 -126
-127 -531 -135 -685 -13 -65 51 -87 119 -54 166 20 28 100 78 174 108 121 49
323 69 426 41z m329 -278 c40 -117 66 -245 66 -324 l0 -51 -37 -7 c-21 -3 -52
-6 -70 -6 -29 0 -32 3 -43 53 -7 28 -26 87 -42 129 l-29 78 30 37 c34 43 56
99 67 168 3 26 10 43 14 38 5 -4 24 -56 44 -115z m1562 -198 c19 -80 34 -148
34 -152 0 -4 -24 -23 -54 -42 -41 -26 -62 -50 -92 -102 -59 -103 -108 -129
-262 -141 -80 -6 -84 -5 -110 20 -62 59 -227 88 -521 91 -237 2 -219 -7 -250
126 -29 121 -29 120 22 120 54 0 182 25 228 44 46 19 98 63 109 91 8 21 14 22
222 28 208 6 396 24 548 51 41 8 79 13 84 12 5 -1 24 -67 42 -146z m-1728 -47
c17 -54 33 -110 36 -125 6 -29 9 -27 -74 -48 -25 -7 -82 -27 -128 -46 -99 -41
-121 -42 -230 -8 -115 35 -141 61 -197 199 -24 60 -43 110 -42 111 1 1 27 -4
57 -12 120 -32 327 -27 465 11 83 22 80 25 113 -82z m3091 -8 c137 -43 261
-158 261 -241 0 -46 -61 -119 -172 -205 -95 -74 -225 -143 -289 -154 -33 -6
-39 -3 -80 43 -47 52 -123 178 -145 240 -18 51 -17 145 2 190 26 64 100 126
168 142 69 17 173 11 255 -15z m-483 -111 c-8 -27 -17 -75 -21 -106 -3 -31
-14 -73 -23 -92 l-17 -34 -91 57 c-51 32 -149 80 -225 109 -159 62 -181 73
-187 90 -3 10 36 11 190 7 134 -4 222 -2 288 7 52 8 96 13 97 13 2 -1 -3 -24
-11 -51z m-553 -50 c239 -78 433 -186 495 -278 26 -40 32 -58 32 -102 0 -99
-43 -164 -140 -214 -140 -71 -333 -63 -491 21 -79 43 -176 139 -219 219 -31
58 -35 73 -34 140 0 41 6 88 13 104 l12 29 37 -35 c81 -78 262 -178 409 -227
65 -22 163 -28 163 -11 0 12 -3 13 -245 115 -206 87 -288 136 -293 177 -4 35
59 108 95 108 13 0 88 -21 166 -46z m-1795 -42 c40 -38 51 -78 26 -97 -20 -15
-111 -53 -321 -135 -151 -59 -176 -74 -153 -90 8 -5 25 -10 38 -10 30 0 232
76 357 134 54 25 102 46 108 46 15 0 0 -87 -26 -144 -34 -74 -135 -169 -217
-203 -57 -24 -78 -28 -165 -27 -111 1 -150 13 -210 66 -67 58 -93 149 -64 225
16 42 87 110 154 148 107 59 290 113 391 114 44 1 57 -3 82 -27z m2346 -143
c3 -18 26 -59 51 -92 47 -64 53 -90 34 -148 -16 -46 -31 -61 -23 -23 8 39 -16
110 -62 184 -27 44 -34 63 -28 84 8 35 20 33 28 -5z m-1575 1 c102 -11 147
-34 143 -73 -3 -26 -1 -27 48 -27 27 0 50 -4 50 -8 0 -5 -24 -21 -52 -35 l-53
-26 42 -1 c43 0 43 0 25 -22 -59 -74 -90 -83 -277 -82 -133 0 -344 37 -382 67
-36 27 8 81 76 92 l43 7 -31 28 c-49 45 -39 83 24 93 38 6 233 -1 344 -13z
m430 -224 c5 -17 12 -43 15 -58 l6 -28 -115 0 -115 0 0 48 c0 56 12 66 110 87
64 14 83 4 99 -49z m-594 -120 c94 -1 203 3 243 7 89 10 92 2 28 -77 -41 -49
-44 -57 -34 -83 14 -40 -3 -76 -45 -96 -46 -22 -222 -24 -272 -3 -44 19 -63
56 -46 92 6 15 10 27 9 29 -2 1 -16 7 -33 14 -26 10 -95 102 -95 125 0 4 17 4
38 0 20 -4 114 -8 207 -8z m929 -50 c42 -35 104 -78 137 -96 33 -17 58 -37 56
-43 -10 -34 -253 -82 -372 -74 -197 14 -306 87 -339 228 l-5 25 182 1 c103 0
195 4 212 11 47 16 48 16 129 -52z m375 -167 c61 -1 64 -2 31 -11 -44 -13
-137 -6 -153 12 -10 10 -6 11 22 6 18 -3 63 -6 100 -7z m-1440 -179 c46 -13
79 -46 87 -86 8 -44 -1 -69 -43 -115 -29 -32 -33 -42 -23 -54 11 -13 15 -11
32 10 22 28 35 30 73 13 30 -13 33 -44 9 -90 -15 -28 -15 -32 0 -40 11 -6 16
-23 16 -53 0 -50 -4 -52 -64 -30 -32 11 -44 11 -78 -1 -73 -25 -162 -12 -196
29 -38 46 -31 129 15 170 20 18 20 18 2 55 -38 73 -12 148 64 182 49 23 60 24
106 10z m596 -18 c34 -21 60 -63 69 -113 l6 -36 -49 -7 c-59 -8 -75 -2 -89 30
-14 30 -57 33 -72 5 -5 -11 -10 -53 -10 -95 0 -76 13 -106 45 -106 18 0 45 28
45 46 0 11 16 14 66 14 l67 0 -7 -42 c-12 -75 -62 -124 -138 -134 -140 -19
-217 59 -218 222 0 133 33 199 117 230 46 17 125 10 168 -14z m360 17 c22 -6
56 -28 76 -48 44 -44 59 -91 59 -189 0 -81 -18 -129 -67 -173 -84 -78 -223
-59 -280 38 -32 55 -43 167 -23 238 16 58 64 112 115 130 49 17 69 18 120 4z
m-3675 -21 c55 -28 80 -73 80 -144 0 -91 -66 -154 -162 -154 l-48 0 0 -65 0
-65 -70 0 -70 0 0 225 0 225 113 0 c97 0 119 -3 157 -22z m405 -148 c23 -91
50 -189 59 -219 9 -30 16 -56 16 -58 0 -2 -34 -3 -75 -3 l-74 0 -9 33 c-7 29
-12 32 -50 35 l-42 3 0 -35 0 -36 -80 0 -79 0 14 40 c8 22 37 123 66 225 l52
186 80 -3 80 -3 42 -165z m399 141 c56 -35 81 -95 81 -196 0 -97 -25 -157 -82
-195 -33 -23 -48 -25 -160 -28 l-123 -4 0 227 0 227 123 -3 c108 -4 126 -7
161 -28z m400 -38 c17 -71 95 -349 103 -370 4 -10 -15 -13 -75 -13 l-81 0 -7
35 c-6 34 -8 35 -49 35 -42 0 -44 -1 -47 -32 l-3 -33 -74 -3 c-57 -2 -73 0
-69 10 2 7 31 109 64 225 l59 213 81 0 82 0 16 -67z m382 56 c29 -8 54 -23 74
-46 25 -29 30 -42 30 -88 0 -46 -5 -59 -30 -88 l-30 -34 40 -87 c22 -47 40
-89 40 -91 0 -3 -35 -5 -78 -5 l-77 0 -25 73 c-14 39 -29 71 -35 69 -5 -1 -10
-34 -10 -72 l0 -70 -72 0 -73 0 0 225 0 225 101 0 c55 0 120 -5 145 -11z m324
-214 l0 -225 -75 0 -75 0 0 225 0 225 75 0 75 0 0 -225z m333 180 c6 -22 32
-120 58 -218 27 -98 49 -180 49 -183 0 -2 -33 -4 -74 -4 l-74 0 -6 35 c-7 34
-9 35 -51 35 -42 0 -44 -1 -47 -32 l-3 -33 -72 -3 c-49 -2 -73 1 -73 8 0 6 22
89 49 183 27 95 54 191 61 215 l11 43 82 -3 81 -3 9 -40z m1788 -54 c21 -52
39 -100 39 -107 0 -7 3 -15 8 -17 4 -3 5 46 4 109 l-4 114 66 0 66 0 0 -225 0
-225 -75 0 c-60 0 -75 3 -75 15 0 19 -50 147 -62 160 -6 6 -7 -25 -3 -82 l8
-93 -67 0 -66 0 0 225 0 226 61 -3 60 -3 40 -94z m559 34 l0 -65 -80 0 c-79 0
-80 0 -80 -25 0 -24 2 -25 65 -25 l65 0 0 -60 0 -60 -65 0 -65 0 0 -75 0 -75
-70 0 -70 0 0 225 0 225 150 0 150 0 0 -65z m378 3 l-3 -63 -82 4 -83 3 0 -26
c0 -26 1 -26 70 -26 l70 0 0 -55 0 -55 -70 0 c-68 0 -70 -1 -70 -25 0 -25 1
-25 85 -25 l85 0 0 -60 0 -60 -155 0 -155 0 0 225 0 225 155 0 156 0 -3 -62z
m212 -163 l0 -225 -75 0 -75 0 0 225 0 225 75 0 75 0 0 -225z m390 176 c0 -73
-5 -81 -56 -81 l-44 0 0 -160 0 -160 -75 0 -75 0 0 160 0 160 -47 0 -48 0 3
65 4 65 169 0 169 0 0 -49z m280 -33 c34 -130 92 -342 97 -355 4 -10 -15 -13
-75 -13 l-80 0 -6 36 c-7 34 -8 35 -49 32 -38 -3 -42 -6 -47 -33 -5 -30 -6
-30 -78 -33 -58 -2 -73 0 -70 11 2 7 30 109 63 225 l60 212 81 0 82 0 22 -82z
m414 62 c50 -26 71 -64 71 -132 0 -54 -3 -62 -30 -86 l-31 -27 32 -70 c55
-122 57 -115 -30 -115 l-75 0 -28 75 c-15 41 -31 75 -35 75 -5 0 -8 -34 -8
-75 l0 -75 -75 0 -75 0 0 226 0 226 128 -4 c88 -2 136 -8 156 -18z m298 -205
l-3 -225 -69 0 -70 0 0 225 0 225 73 0 72 0 -3 -225z m374 25 c30 -107 57
-207 60 -222 l7 -28 -76 0 c-79 0 -87 5 -87 51 0 17 -6 20 -42 17 -40 -3 -43
-5 -46 -35 l-3 -33 -75 0 c-41 0 -74 3 -74 6 0 3 18 67 39 142 21 75 49 174
61 220 l22 83 80 -3 80 -3 54 -195z"/>
<path d="M4716 7955 c-98 -27 -132 -85 -75 -127 39 -30 178 -51 287 -43 136 8
190 37 175 93 -18 71 -244 116 -387 77z"/>
<path d="M4144 7911 c-19 -12 -39 -38 -53 -72 -20 -45 -22 -58 -12 -89 6 -21
20 -49 31 -63 42 -53 174 -110 330 -143 101 -20 436 -30 567 -15 97 10 213 43
213 61 0 16 -35 20 -193 20 -328 0 -605 27 -721 70 -100 38 -151 121 -128 210
11 45 9 47 -34 21z"/>
<path d="M4451 5996 c-10 -11 -10 -20 -1 -36 l12 -22 15 21 c25 36 0 69 -26
37z"/>
<path d="M4442 5778 c2 -15 11 -24 27 -26 23 -4 23 -4 5 22 -24 32 -36 33 -32
4z"/>
<path d="M5389 5964 c-17 -21 -24 -131 -10 -166 8 -22 17 -28 40 -28 27 0 31
5 42 43 12 47 6 131 -12 153 -15 19 -43 18 -60 -2z"/>
<path d="M1670 5935 c0 -37 3 -45 18 -45 22 0 52 30 52 51 0 22 -21 39 -47 39
-21 0 -23 -5 -23 -45z"/>
<path d="M2071 5930 c-1 -8 -4 -32 -7 -52 -5 -31 -4 -38 10 -38 12 0 16 9 15
33 0 34 -17 84 -18 57z"/>
<path d="M2460 5875 l0 -106 27 3 c39 4 55 40 50 115 -3 69 -9 78 -49 88 l-28
7 0 -107z"/>
<path d="M2890 5901 c0 -16 -3 -36 -6 -45 -4 -12 0 -16 16 -16 16 0 20 4 16
16 -3 9 -6 29 -6 45 0 16 -4 29 -10 29 -5 0 -10 -13 -10 -29z"/>
<path d="M3280 5941 c0 -33 3 -41 19 -41 48 0 56 73 9 78 -27 3 -28 1 -28 -37z"/>
<path d="M3938 5885 c-2 -35 0 -45 12 -45 12 0 15 9 12 40 -6 56 -19 59 -24 5z"/>
<path d="M7540 5934 c-1 -5 -5 -28 -9 -51 -7 -38 -6 -43 10 -43 16 0 18 6 12
48 -5 44 -12 67 -13 46z"/>
<path d="M7920 5945 c0 -24 5 -38 16 -42 26 -10 49 11 49 43 0 25 -4 29 -32
32 -32 3 -33 2 -33 -33z"/>
<path d="M8590 5908 c0 -13 -3 -33 -6 -45 -5 -19 -2 -23 16 -23 16 0 20 4 16
16 -3 9 -6 29 -6 45 0 16 -4 29 -10 29 -5 0 -10 -10 -10 -22z"/>
<path d="M1676 5109 c-222 -25 -448 -106 -619 -221 -146 -97 -302 -291 -362
-451 -44 -119 -50 -268 -13 -357 19 -44 72 -99 115 -116 70 -30 181 -7 227 45
19 21 19 21 -13 21 -78 0 -155 66 -166 144 -14 91 45 260 131 378 52 70 178
183 255 229 38 23 102 54 144 70 78 31 244 74 252 66 2 -3 -21 -49 -53 -103
-91 -157 -245 -466 -311 -624 -120 -286 -173 -474 -173 -616 0 -113 29 -164
93 -164 50 0 66 27 93 153 26 125 58 222 122 377 37 88 42 95 68 95 28 0 31
-6 124 -235 121 -296 176 -412 244 -514 133 -199 279 -291 482 -303 138 -8
262 34 318 110 19 25 19 28 3 44 -16 16 -22 15 -97 -6 -155 -45 -266 -14 -383
108 -87 90 -165 210 -295 451 -60 113 -122 226 -136 251 l-26 46 142 6 c164 6
246 25 374 88 344 169 498 640 285 872 -67 73 -201 128 -366 152 -106 16 -344
18 -459 4z m427 -134 c93 -19 151 -51 202 -108 64 -70 79 -153 50 -276 -45
-191 -214 -358 -432 -427 -109 -34 -385 -26 -400 13 -10 25 81 236 222 517 74
148 140 275 146 283 15 18 124 17 212 -2z"/>
<path d="M2235 4830 c10 -11 20 -20 23 -20 3 0 -3 9 -13 20 -10 11 -20 20 -23
20 -3 0 3 -9 13 -20z"/>
<path d="M2292 4690 c0 -19 2 -27 5 -17 2 9 2 25 0 35 -3 9 -5 1 -5 -18z"/>
<path d="M2230 4490 c-6 -11 -8 -20 -6 -20 3 0 10 9 16 20 6 11 8 20 6 20 -3
0 -10 -9 -16 -20z"/>
<path d="M2199 4443 c-13 -16 -12 -17 4 -4 9 7 17 15 17 17 0 8 -8 3 -21 -13z"/>
<path d="M2129 4373 l-24 -28 28 24 c25 23 32 31 24 31 -2 0 -14 -12 -28 -27z"/>
<path d="M1698 4213 c12 -2 32 -2 45 0 12 2 2 4 -23 4 -25 0 -35 -2 -22 -4z"/>
<path d="M6330 5105 c-222 -30 -414 -99 -554 -199 -89 -63 -214 -200 -268
-291 -151 -260 -136 -549 33 -635 81 -42 230 -15 257 46 19 39 15 44 -34 44
-40 0 -51 5 -80 35 -39 41 -49 84 -41 165 17 158 158 392 294 487 135 94 312
157 463 164 52 2 54 1 38 -23 -31 -48 -320 -611 -391 -763 -123 -260 -167
-403 -167 -538 0 -123 28 -164 105 -155 41 5 63 43 80 138 20 116 56 224 121
359 45 95 57 112 71 106 118 -51 297 -80 443 -72 132 7 210 27 330 84 166 80
297 233 350 411 19 63 22 90 18 180 -8 160 -47 242 -155 323 -74 56 -187 102
-308 124 -125 23 -466 29 -605 10z m600 -149 c157 -65 241 -225 210 -403 -25
-144 -112 -261 -249 -332 -110 -57 -192 -75 -313 -67 -102 6 -197 23 -212 36
-13 12 7 64 132 340 118 263 196 425 215 449 18 22 140 9 217 -23z"/>
<path d="M6920 4876 c0 -2 7 -7 16 -10 8 -3 12 -2 9 4 -6 10 -25 14 -25 6z"/>
<path d="M6990 4825 c19 -19 36 -35 39 -35 3 0 -10 16 -29 35 -19 19 -36 35
-39 35 -3 0 10 -16 29 -35z"/>
<path d="M7073 4625 c0 -22 2 -30 4 -17 2 12 2 30 0 40 -3 9 -5 -1 -4 -23z"/>
<path d="M6959 4363 l-34 -38 38 34 c34 33 42 41 34 41 -2 0 -19 -17 -38 -37z"/>
<path d="M4435 5055 c-49 -52 -153 -257 -340 -677 -149 -331 -199 -417 -308
-529 -126 -129 -241 -200 -356 -221 -68 -13 -103 -3 -143 39 -50 53 -20 227
70 408 117 235 224 324 299 249 26 -26 26 -27 19 -134 -4 -67 -3 -111 3 -115
17 -10 76 21 104 54 58 69 75 212 35 291 -71 140 -309 157 -460 32 -102 -85
-185 -197 -293 -397 -61 -113 -146 -246 -183 -287 -43 -48 -119 -98 -149 -98
-16 0 -24 7 -29 24 -12 48 34 206 116 401 53 125 80 219 80 275 0 41 -4 52
-26 69 -58 46 -132 16 -191 -76 -45 -71 -142 -274 -176 -368 -33 -95 -60 -257
-52 -314 23 -154 144 -219 299 -160 64 23 145 81 238 168 l65 61 7 -55 c9 -79
33 -131 77 -169 48 -41 97 -56 181 -56 165 0 343 112 498 313 l45 57 6 -132
c8 -180 29 -228 99 -228 57 0 102 41 240 218 l125 161 6 -98 c8 -126 39 -231
83 -279 31 -33 39 -36 99 -40 58 -4 74 0 129 26 140 66 342 284 470 507 45 78
82 177 71 189 -16 16 -35 0 -89 -71 -160 -215 -299 -355 -399 -402 -104 -50
-171 -38 -201 35 -17 42 -19 236 -2 267 14 27 197 234 267 302 42 41 59 50 97
55 59 6 89 41 89 101 0 33 -6 46 -28 65 -36 31 -111 33 -165 5 -51 -26 -167
-156 -356 -399 -141 -180 -231 -280 -243 -268 -6 5 61 206 127 382 29 75 92
223 142 328 122 260 178 400 178 447 0 56 -26 79 -91 79 -46 0 -55 -4 -84 -35z"/>
<path d="M3080 5052 c-71 -36 -121 -152 -119 -282 0 -82 17 -130 50 -149 24
-13 31 -13 72 3 92 35 174 133 191 229 4 21 2 63 -4 93 -22 106 -102 151 -190
106z"/>
<path d="M7310 5017 c0 -2 15 -16 33 -33 l32 -29 -29 33 c-28 30 -36 37 -36
29z"/>
<path d="M6298 4833 c7 -3 16 -2 19 1 4 3 -2 6 -13 5 -11 0 -14 -3 -6 -6z"/>
<path d="M6226 4673 c-6 -14 -5 -15 5 -6 7 7 10 15 7 18 -3 3 -9 -2 -12 -12z"/>
<path d="M1119 4603 l-34 -38 38 34 c34 33 42 41 34 41 -2 0 -19 -17 -38 -37z"/>
<path d="M2967 4549 c7 -7 15 -10 18 -7 3 3 -2 9 -12 12 -14 6 -15 5 -6 -5z"/>
<path d="M3790 4556 c0 -2 8 -10 18 -17 15 -13 16 -12 3 4 -13 16 -21 21 -21
13z"/>
<path d="M1044 4518 l-19 -23 23 19 c21 18 27 26 19 26 -2 0 -12 -10 -23 -22z"/>
<path d="M4614 4498 l-19 -23 23 19 c21 18 27 26 19 26 -2 0 -12 -10 -23 -22z"/>
<path d="M7703 4451 c-72 -26 -132 -70 -200 -147 -115 -129 -195 -288 -228
-453 -33 -162 -6 -284 75 -339 30 -21 44 -23 100 -19 39 2 85 14 115 28 52 24
166 130 223 208 l32 45 0 -90 c1 -129 29 -184 113 -219 96 -40 214 5 345 133
44 42 93 94 109 115 l30 38 6 -90 c11 -166 63 -209 173 -140 63 40 230 209
363 369 93 112 131 148 131 123 0 -4 -10 -42 -21 -83 -47 -175 -61 -328 -36
-399 30 -85 139 -102 261 -42 87 43 238 189 315 306 70 106 164 297 159 327
-7 49 -34 31 -84 -54 -61 -103 -177 -249 -277 -349 -126 -125 -177 -138 -177
-45 0 61 29 142 113 322 77 164 107 253 107 318 0 30 -5 40 -32 56 -40 24 -69
25 -111 4 -18 -9 -153 -136 -302 -283 -252 -249 -347 -332 -361 -318 -4 3 3
19 15 36 34 47 196 379 220 449 39 114 24 179 -44 202 -92 31 -146 -29 -325
-355 -108 -199 -161 -276 -244 -364 -119 -124 -196 -169 -213 -125 -15 39 26
162 137 409 113 252 141 350 108 383 -23 23 -74 13 -124 -23 -27 -19 -55 -38
-61 -41 -7 -3 -38 17 -69 45 -37 34 -72 55 -106 66 -70 20 -171 19 -235 -4z
m207 -156 c33 -17 60 -61 60 -97 0 -13 -16 -57 -36 -98 -79 -165 -219 -341
-328 -412 -61 -39 -93 -47 -114 -26 -30 30 5 152 98 343 53 108 83 156 129
206 85 94 133 114 191 84z"/>
<path d="M7774 4168 l-19 -23 23 19 c12 11 22 21 22 23 0 8 -8 2 -26 -19z"/>
<path d="M7785 3994 c-9 -15 -12 -23 -6 -20 11 7 35 46 28 46 -3 0 -12 -12
-22 -26z"/>
<path d="M990 4440 c-6 -11 -8 -20 -6 -20 3 0 10 9 16 20 6 11 8 20 6 20 -3 0
-10 -9 -16 -20z"/>
<path d="M8619 4443 c-13 -16 -12 -17 4 -4 16 13 21 21 13 21 -2 0 -10 -8 -17
-17z"/>
<path d="M3194 4398 l-29 -33 33 29 c30 28 37 36 29 36 -2 0 -16 -15 -33 -32z"/>
<path d="M9470 4426 c0 -2 8 -10 18 -17 15 -13 16 -12 3 4 -13 16 -21 21 -21
13z"/>
<path d="M6067 4365 c-15 -30 -25 -55 -22 -55 7 0 57 101 53 106 -2 2 -16 -21
-31 -51z"/>
<path d="M2606 4393 c-6 -14 -5 -15 5 -6 7 7 10 15 7 18 -3 3 -9 -2 -12 -12z"/>
<path d="M3995 4359 c-4 -6 -5 -12 -2 -15 2 -3 7 2 10 11 7 17 1 20 -8 4z"/>
<path d="M1236 4333 c-6 -14 -5 -15 5 -6 7 7 10 15 7 18 -3 3 -9 -2 -12 -12z"/>
<path d="M2561 4313 c-10 -26 -10 -27 4 -9 8 11 15 23 15 28 0 15 -7 8 -19
-19z"/>
<path d="M3966 4295 c-9 -26 -7 -32 5 -12 6 10 9 21 6 23 -2 3 -7 -2 -11 -11z"/>
<path d="M6022 4275 c-17 -37 -14 -45 4 -12 9 16 14 31 11 33 -2 2 -9 -7 -15
-21z"/>
<path d="M9064 4258 l-29 -33 33 29 c17 17 32 31 32 33 0 8 -8 1 -36 -29z"/>
<path d="M573 4210 c0 -25 2 -35 4 -22 2 12 2 32 0 45 -2 12 -4 2 -4 -23z"/>
<path d="M4799 4223 l-24 -28 28 24 c25 23 32 31 24 31 -2 0 -14 -12 -28 -27z"/>
<path d="M7349 4233 c-13 -16 -12 -17 4 -4 16 13 21 21 13 21 -2 0 -10 -8 -17
-17z"/>
<path d="M8462 4185 c-17 -37 -14 -45 4 -12 9 16 14 31 11 33 -2 2 -9 -7 -15
-21z"/>
<path d="M5720 4170 c0 -5 5 -10 11 -10 5 0 7 5 4 10 -3 6 -8 10 -11 10 -2 0
-4 -4 -4 -10z"/>
<path d="M2409 4123 l-34 -38 38 34 c34 33 42 41 34 41 -2 0 -19 -17 -38 -37z"/>
<path d="M4699 4113 c-13 -16 -12 -17 4 -4 16 13 21 21 13 21 -2 0 -10 -8 -17
-17z"/>
<path d="M7215 4088 l-40 -43 43 40 c39 36 47 45 39 45 -2 0 -21 -19 -42 -42z"/>
<path d="M2466 4105 c-9 -26 -7 -32 5 -12 6 10 9 21 6 23 -2 3 -7 -2 -11 -11z"/>
<path d="M2995 4090 c-9 -16 -13 -30 -11 -30 3 0 12 14 21 30 9 17 13 30 11
30 -3 0 -12 -13 -21 -30z"/>
<path d="M4989 4073 c-13 -16 -12 -17 4 -4 9 7 17 15 17 17 0 8 -8 3 -21 -13z"/>
<path d="M5350 4086 c0 -11 30 -66 36 -66 2 0 -3 15 -12 33 -19 36 -24 44 -24
33z"/>
<path d="M1105 4009 c-4 -6 -5 -12 -2 -15 2 -3 7 2 10 11 7 17 1 20 -8 4z"/>
<path d="M4929 3993 c-13 -16 -12 -17 4 -4 16 13 21 21 13 21 -2 0 -10 -8 -17
-17z"/>
<path d="M9416 3985 c-9 -26 -7 -32 5 -12 6 10 9 21 6 23 -2 3 -7 -2 -11 -11z"/>
<path d="M2150 3970 c-9 -6 -10 -10 -3 -10 6 0 15 5 18 10 8 12 4 12 -15 0z"/>
<path d="M4879 3933 l-24 -28 28 24 c25 23 32 31 24 31 -2 0 -14 -12 -28 -27z"/>
<path d="M3759 3923 l-24 -28 28 24 c25 23 32 31 24 31 -2 0 -14 -12 -28 -27z"/>
<path d="M8323 3938 c-15 -20 -25 -38 -20 -38 3 0 12 11 21 25 17 26 16 35 -1
13z"/>
<path d="M5866 3925 c-9 -26 -7 -32 5 -12 6 10 9 21 6 23 -2 3 -7 -2 -11 -11z"/>
<path d="M6428 3913 c7 -3 16 -2 19 1 4 3 -2 6 -13 5 -11 0 -14 -3 -6 -6z"/>
<path d="M5745 3900 c-13 -6 -15 -9 -5 -9 8 0 22 4 30 9 18 12 2 12 -25 0z"/>
<path d="M6478 3903 c7 -3 16 -2 19 1 4 3 -2 6 -13 5 -11 0 -14 -3 -6 -6z"/>
<path d="M6818 3903 c7 -3 16 -2 19 1 4 3 -2 6 -13 5 -11 0 -14 -3 -6 -6z"/>
<path d="M1456 3883 c-6 -14 -5 -15 5 -6 7 7 10 15 7 18 -3 3 -9 -2 -12 -12z"/>
<path d="M6593 3893 c31 -2 83 -2 115 0 31 2 5 3 -58 3 -63 0 -89 -1 -57 -3z"/>
<path d="M5618 3873 c6 -2 18 -2 25 0 6 3 1 5 -13 5 -14 0 -19 -2 -12 -5z"/>
<path d="M7191 3864 c0 -11 3 -14 6 -6 3 7 2 16 -1 19 -3 4 -6 -2 -5 -13z"/>
<path d="M2381 3814 c0 -11 3 -14 6 -6 3 7 2 16 -1 19 -3 4 -6 -2 -5 -13z"/>
<path d="M7181 3804 c0 -11 3 -14 6 -6 3 7 2 16 -1 19 -3 4 -6 -2 -5 -13z"/>
<path d="M9379 3793 c-13 -16 -12 -17 4 -4 16 13 21 21 13 21 -2 0 -10 -8 -17
-17z"/>
<path d="M1510 3776 c0 -8 4 -17 9 -20 5 -4 7 3 4 14 -6 23 -13 26 -13 6z"/>
<path d="M3332 3755 c0 -16 2 -22 5 -12 2 9 2 23 0 30 -3 6 -5 -1 -5 -18z"/>
<path d="M5812 3740 c0 -14 2 -19 5 -12 2 6 2 18 0 25 -3 6 -5 1 -5 -13z"/>
<path d="M7172 3715 c0 -16 2 -22 5 -12 2 9 2 23 0 30 -3 6 -5 -1 -5 -18z"/>
<path d="M1940 3691 c0 -6 4 -13 10 -16 6 -3 7 1 4 9 -7 18 -14 21 -14 7z"/>
<path d="M5802 3680 c0 -14 2 -19 5 -12 2 6 2 18 0 25 -3 6 -5 1 -5 -13z"/>
<path d="M1003 3580 c0 -36 2 -50 4 -32 2 17 2 47 0 65 -2 17 -4 3 -4 -33z"/>
<path d="M5791 3614 c0 -11 3 -14 6 -6 3 7 2 16 -1 19 -3 4 -6 -2 -5 -13z"/>
<path d="M4282 3600 c0 -14 2 -19 5 -12 2 6 2 18 0 25 -3 6 -5 1 -5 -13z"/>
<path d="M4899 3563 l-34 -38 38 34 c20 19 37 36 37 38 0 8 -8 0 -41 -34z"/>
<path d="M8942 3580 c0 -14 2 -19 5 -12 2 6 2 18 0 25 -3 6 -5 1 -5 -13z"/>
<path d="M9534 3578 l-19 -23 23 19 c21 18 27 26 19 26 -2 0 -12 -10 -23 -22z"/>
<path d="M2969 3573 c-13 -16 -12 -17 4 -4 16 13 21 21 13 21 -2 0 -10 -8 -17
-17z"/>
<path d="M3010 3571 c0 -6 4 -13 10 -16 6 -3 7 1 4 9 -7 18 -14 21 -14 7z"/>
<path d="M3801 3564 c0 -11 3 -14 6 -6 3 7 2 16 -1 19 -3 4 -6 -2 -5 -13z"/>
<path d="M8341 3557 c-8 -10 -7 -14 4 -14 8 0 15 6 15 14 0 7 -2 13 -4 13 -2
0 -9 -6 -15 -13z"/>
<path d="M4179 3543 c-13 -16 -12 -17 4 -4 16 13 21 21 13 21 -2 0 -10 -8 -17
-17z"/>
<path d="M4300 3536 c0 -11 30 -66 36 -66 2 0 -3 15 -12 33 -19 36 -24 44 -24
33z"/>
<path d="M7679 3513 c-13 -16 -12 -17 4 -4 9 7 17 15 17 17 0 8 -8 3 -21 -13z"/>
<path d="M8704 3508 l-19 -23 23 19 c12 11 22 21 22 23 0 8 -8 2 -26 -19z"/>
<path d="M8950 3525 c0 -5 5 -17 10 -25 5 -8 10 -10 10 -5 0 6 -5 17 -10 25
-5 8 -10 11 -10 5z"/>
<path d="M4839 3503 c-13 -16 -12 -17 4 -4 16 13 21 21 13 21 -2 0 -10 -8 -17
-17z"/>
<path d="M8659 3473 c-13 -16 -12 -17 4 -4 16 13 21 21 13 21 -2 0 -10 -8 -17
-17z"/>
<path d="M3070 3476 c0 -2 8 -10 18 -17 15 -13 16 -12 3 4 -13 16 -21 21 -21
13z"/>
<path d="M7815 3440 c10 -11 20 -20 23 -20 3 0 -3 9 -13 20 -10 11 -20 20 -23
20 -3 0 3 -9 13 -20z"/>
<path d="M5820 3443 c0 -6 8 -17 18 -24 16 -13 16 -13 2 6 -8 11 -16 22 -17
24 -2 2 -3 0 -3 -6z"/>
<path d="M9000 3436 c0 -2 8 -10 18 -17 15 -13 16 -12 3 4 -13 16 -21 21 -21
13z"/>
<path d="M1030 3421 c0 -6 4 -13 10 -16 6 -3 7 1 4 9 -7 18 -14 21 -14 7z"/>
<path d="M1660 3421 c0 -6 4 -13 10 -16 6 -3 7 1 4 9 -7 18 -14 21 -14 7z"/>
<path d="M2708 3423 c7 -3 16 -2 19 1 4 3 -2 6 -13 5 -11 0 -14 -3 -6 -6z"/>
<path d="M3298 3383 c18 -2 45 -2 60 0 15 2 0 4 -33 4 -33 0 -45 -2 -27 -4z"/>
<path d="M6008 3363 c7 -3 16 -2 19 1 4 3 -2 6 -13 5 -11 0 -14 -3 -6 -6z"/>
<path d="M4518 3353 c6 -2 18 -2 25 0 6 3 1 5 -13 5 -14 0 -19 -2 -12 -5z"/>
<path d="M5948 3353 c6 -2 18 -2 25 0 6 3 1 5 -13 5 -14 0 -19 -2 -12 -5z"/>
<path d="M2200 3296 c0 -2 8 -10 18 -17 15 -13 16 -12 3 4 -13 16 -21 21 -21
13z"/>
<path d="M2244 3251 c7 -11 46 -35 46 -28 0 3 -12 12 -26 22 -15 9 -23 12 -20
6z"/>
<path d="M1770 3226 c0 -2 8 -10 18 -17 15 -13 16 -12 3 4 -13 16 -21 21 -21
13z"/>
<path d="M1860 3117 c0 -2 15 -16 33 -33 l32 -29 -29 33 c-28 30 -36 37 -36
29z"/>
<path d="M3716 2858 c-132 -277 -158 -327 -196 -370 -23 -27 -48 -48 -55 -48
-17 0 -12 17 25 80 39 67 59 125 49 142 -5 9 -28 21 -52 28 -40 11 -49 10 -85
-9 -49 -25 -122 -113 -122 -147 0 -13 2 -24 4 -24 3 0 31 27 63 61 32 33 66
65 76 70 26 15 57 1 57 -24 0 -26 -8 -38 -36 -54 -19 -10 -21 -9 -17 15 5 27
4 27 -29 -8 -18 -19 -44 -49 -58 -65 -36 -43 -89 -85 -107 -85 -13 0 -15 8
-10 43 3 24 9 51 13 60 4 11 1 17 -9 17 -35 0 -77 -103 -57 -140 29 -55 101
-29 195 71 67 72 76 74 50 12 -21 -49 -19 -80 5 -93 23 -12 63 4 94 39 25 27
36 27 36 -2 0 -33 18 -47 61 -47 88 0 229 148 229 240 0 78 -63 105 -130 55
-34 -25 -52 -26 -32 -3 22 28 122 238 122 257 0 14 -6 21 -20 21 -15 0 -30
-22 -64 -92z m70 -213 c16 -40 -8 -89 -76 -157 -103 -103 -148 -90 -91 27 49
99 149 177 167 130z"/>
<path d="M2328 2893 c6 -2 18 -2 25 0 6 3 1 5 -13 5 -14 0 -19 -2 -12 -5z"/>
<path d="M3083 2856 c-97 -31 -163 -99 -163 -168 0 -46 32 -85 92 -116 54 -27
82 -56 74 -77 -9 -23 -85 -55 -133 -55 -30 0 -49 6 -64 21 -20 20 -22 20 -40
3 -27 -24 -24 -60 6 -80 95 -62 269 10 294 124 10 45 9 48 -18 72 -15 14 -48
37 -74 52 -56 33 -69 67 -40 106 59 81 215 82 199 1 -5 -25 -3 -29 18 -29 12
0 31 9 40 19 36 40 -5 111 -75 131 -43 13 -64 12 -116 -4z"/>
<path d="M7475 2778 c-60 -128 -57 -125 -93 -98 -23 17 -37 20 -61 15 -40 -9
-118 -80 -175 -159 -40 -56 -91 -104 -101 -94 -2 2 20 51 50 108 59 114 66
140 36 140 -14 0 -34 -27 -74 -102 -53 -98 -109 -169 -123 -155 -4 4 7 37 24
74 17 38 58 128 91 201 59 129 65 152 37 152 -23 0 -42 -32 -112 -189 -48
-107 -82 -168 -111 -200 -22 -25 -44 -43 -49 -39 -4 5 16 55 44 112 29 57 52
107 52 113 0 21 -23 32 -43 21 -13 -7 -22 -7 -26 0 -3 6 -17 13 -31 17 -69 17
-230 -159 -230 -250 0 -17 7 -41 16 -54 25 -35 85 -24 134 24 l38 38 4 -29 c4
-40 44 -44 86 -10 37 32 39 32 38 4 -1 -18 5 -24 27 -26 17 -2 37 4 47 13 18
16 20 16 36 1 18 -19 44 -14 85 15 25 18 25 17 36 -11 22 -58 88 -49 164 21
23 21 43 39 44 39 1 0 0 -11 -3 -25 -5 -29 13 -55 37 -55 9 0 33 11 54 25 40
28 57 26 57 -5 0 -25 35 -43 68 -35 15 3 44 19 64 36 41 32 50 35 47 17 -6
-46 29 -51 85 -13 20 14 38 25 40 25 2 0 6 -13 9 -30 11 -55 80 -47 150 18
l27 26 0 -27 c0 -48 53 -48 109 -1 22 18 31 21 31 11 0 -8 9 -26 21 -41 28
-36 82 -35 157 3 61 31 162 107 162 122 0 19 -33 8 -83 -29 -67 -49 -63 -47
-124 -65 -48 -15 -54 -14 -74 2 -20 16 -20 19 -7 51 12 29 23 37 62 49 89 26
145 83 132 134 -8 34 -44 44 -82 24 -34 -18 -74 -59 -137 -143 -47 -63 -101
-114 -118 -114 -16 0 -3 33 86 216 98 200 106 224 76 224 -16 0 -31 -21 -72
-102 -28 -57 -53 -105 -54 -106 -2 -2 -13 6 -24 17 -24 24 -38 26 -78 10 -38
-14 -77 -52 -131 -129 -50 -71 -101 -130 -114 -130 -15 0 -8 23 42 133 52 112
54 141 10 117 -17 -9 -25 -9 -39 4 -43 39 -105 8 -188 -94 -114 -140 -153
-174 -153 -135 0 8 41 99 90 201 50 103 89 193 86 201 -13 34 -39 9 -81 -79z
m845 -143 c0 -17 -11 -32 -37 -50 -37 -25 -63 -32 -63 -17 0 11 80 92 91 92 5
0 9 -11 9 -25z m-1495 -5 c18 -56 -153 -246 -189 -210 -18 18 6 81 52 139 69
87 123 115 137 71z m550 6 c18 -13 16 -17 -34 -85 -88 -118 -162 -162 -169
-100 -4 33 68 142 116 174 42 28 60 31 87 11z m335 -1 c28 -34 -115 -220 -164
-213 -56 8 -32 87 53 178 49 53 87 64 111 35z m308 2 c23 -27 -57 -156 -122
-196 -49 -31 -66 -28 -66 13 0 62 110 196 161 196 9 0 21 -6 27 -13z"/>
<path d="M8507 2718 c-72 -151 -76 -167 -36 -168 20 0 155 281 146 304 -16 40
-39 11 -110 -136z"/>
<path d="M5993 2829 c-59 -29 -135 -115 -177 -200 -30 -59 -36 -83 -36 -133 0
-69 14 -97 60 -121 53 -28 95 -18 183 43 l48 33 -7 -36 c-5 -30 -2 -41 17 -61
27 -28 64 -31 114 -7 40 19 50 50 13 38 -13 -4 -39 -9 -60 -12 -29 -4 -37 -1
-42 15 -7 22 2 52 15 52 5 0 9 9 9 20 0 11 -7 20 -15 20 -20 0 -20 2 17 56 45
67 77 152 78 203 0 36 -6 49 -34 77 -30 30 -40 34 -87 34 -35 0 -69 -8 -96
-21z m147 -49 c11 -11 20 -33 20 -48 0 -39 -51 -137 -101 -195 -41 -47 -129
-107 -160 -107 -82 0 -63 150 34 273 35 45 121 97 160 97 15 0 36 -9 47 -20z"/>
<path d="M7130 2785 c-14 -17 -4 -55 14 -55 18 0 46 33 46 53 0 21 -43 23 -60
2z"/>
<path d="M6260 2594 c-34 -64 -78 -134 -97 -155 -29 -32 -32 -39 -17 -39 11 1
30 7 44 14 22 13 27 12 47 -10 25 -28 50 -23 108 21 l33 26 -1 -33 c-2 -30 1
-33 31 -36 27 -3 41 5 90 52 45 43 65 72 87 126 24 60 26 74 16 96 -17 37 -35
24 -43 -31 -10 -68 -47 -134 -97 -173 -24 -18 -46 -31 -48 -28 -3 3 11 31 30
63 53 87 96 183 90 200 -11 29 -38 6 -74 -62 -23 -43 -62 -94 -103 -133 -104
-101 -117 -70 -40 93 25 53 43 103 40 111 -13 34 -38 8 -96 -102z"/>
<path d="M3975 2691 c-55 -23 -145 -155 -152 -224 -6 -51 24 -97 63 -97 29 0
80 24 110 52 19 17 22 17 34 3 16 -20 29 -19 53 3 19 17 20 16 8 -7 -14 -26
-2 -47 21 -38 8 2 36 46 63 96 52 99 110 161 150 161 20 0 25 5 25 25 0 42
-27 42 -70 0 l-39 -38 6 36 c11 68 -22 44 -73 -52 -46 -88 -115 -174 -122
-152 -2 6 6 36 17 66 26 70 27 126 3 148 -23 21 -70 29 -97 18z m65 -56 c30
-37 -94 -220 -143 -213 -52 7 -24 108 51 188 41 42 71 50 92 25z"/>
<path d="M4693 2681 c-17 -11 -50 -43 -71 -70 -156 -198 -26 -326 176 -173 25
19 32 21 32 9 0 -30 50 -77 81 -77 64 0 154 71 185 146 21 51 18 126 -6 152
-48 51 -114 34 -179 -48 -104 -130 -202 -204 -264 -198 -29 3 -32 7 -35 40 -2
22 5 52 17 75 24 49 106 125 129 121 24 -4 26 -41 6 -83 -23 -50 -6 -64 30
-26 38 40 42 104 7 132 -30 24 -68 24 -108 0z m366 -45 c15 -18 2 -70 -32
-129 -34 -57 -69 -87 -103 -90 -27 -2 -29 1 -32 35 -4 44 24 102 75 158 37 42
71 51 92 26z"/>
<path d="M5230 2683 c-34 -59 -130 -267 -130 -282 0 -29 27 -33 45 -8 9 12 36
56 61 99 45 77 121 158 148 158 8 0 19 -8 24 -17 12 -20 -1 -60 -52 -161 -41
-82 -43 -92 -17 -92 21 0 35 15 65 69 53 100 154 216 171 199 3 -3 -13 -44
-36 -92 -62 -133 -63 -175 -3 -176 24 0 91 65 75 74 -5 4 -19 1 -30 -6 -37
-23 -35 1 7 90 43 90 51 129 30 150 -26 26 -59 13 -113 -44 l-54 -56 6 35 c4
27 1 39 -16 56 -33 33 -63 26 -121 -26 l-52 -47 20 41 c12 22 18 43 15 47 -12
12 -33 6 -43 -11z"/>
<path d="M8270 2512 c-61 -20 -75 -28 -73 -38 4 -18 34 -15 77 6 24 11 47 27
50 35 6 17 5 17 -54 -3z"/>
<path d="M8431 2445 c-32 -37 -41 -75 -17 -75 21 0 78 70 72 87 -3 8 -6 17 -6
19 0 13 -22 -1 -49 -31z"/>
</g>
</svg>
